<svg xmlns="http://www.w3.org/2000/svg"><symbol id="icon-academy" viewBox="0 0 1280 800"><path stroke="#231F20" stroke-miterlimit="10" d="M640.8 303l-.8-.1-76.7 8v140.6l76.7 45.6 76.7-45.6V310.9l-75.9-7.9zm65.9 142.8L640 485.4l-66.7-39.7v-57.6l66.4 39.5.1 7.2-45.5-27.1-.1 7 45.7 27.5.1 7.3-45.7-27.2-.1 7 45.7 27.5 46.2-27.6v-7h-.1v-22.8l20.6-12.3v58.7zm-.1-66.1l-18.2 10.7-8.4 5-40.1-23.9-.1 7 34.3 20.4-.3.2-.7.4-4.9 2.9-28.3-16.9-.1 7 22.4 13.3-5.3 3.5-.1.1-16.9-10-.1 7 11.1 6.5-11.3 6.8-66-39.3 66.1-39.8 66.9 39.1zm.1-7l-67-39.5-66.3 39.5V320l66.7-7 66.7 7v52.7z"/></symbol><symbol id="icon-burger" viewBox="0 0 76.2 69"><path d="M71.9 46H4.3C1.9 46 0 48 0 50.3v3.5C0 56.1 1.9 58 4.3 58h1v1c0 5.5 4.5 9.9 9.9 9.9H61c5.5 0 9.9-4.5 9.9-9.9v-1h1c2.3 0 4.3-1.9 4.3-4.3v-3.5c0-2.2-1.9-4.2-4.3-4.2zM68 59c0 3.8-3.1 6.9-6.9 6.9h-46c-3.8 0-6.9-3.1-6.9-6.9v-1H68v1zm5.2-5.3c0 .7-.6 1.3-1.3 1.3H4.3c-.7 0-1.3-.6-1.3-1.3v-3.5c0-.6.6-1.2 1.3-1.2H72c.7 0 1.3.6 1.3 1.3v3.4zm-57-15.8l5.4 4 5.5-4 5.5 4 5.5-4 5.4 4 5.5-4 5.5 4 5.5-4 5.5 4 6.3-4.7-1.7-2.4-4.6 3.3-5.5-4-5.5 4-5.5-4-5.5 4-5.4-4-5.5 4-5.5-4-5.5 4-5.4-4-5.5 4-4.6-3.3-1.8 2.4 6.4 4.7zm54.7-6.8c0-.6.1-2.6 0-3C70.2 12.5 55.8 0 38.1 0 20.4 0 5.9 12.5 5.2 28.1v3h65.7zM38.1 3c16 0 29.2 11.2 29.8 25.1H8.2C8.9 14.2 22.1 3 38.1 3z"/><circle cx="38.1" cy="15" r="2"/><circle cx="30.1" cy="10.1" r="2"/><circle cx="46.1" cy="10.1" r="2"/></symbol><symbol id="icon-email" viewBox="0 0 16 16"><path d="M8 10c-.3 0-.5-.1-1-.3L0 6v7c0 .5.5 1 1 1h14c.5 0 1-.5 1-1V6L9 9.7c-.5.2-.7.3-1 .3zm7-8H1c-.5 0-1 .5-1 1v.8L8 8l8-4.2V3c0-.5-.5-1-1-1z"/></symbol><symbol id="icon-facebook" viewBox="0 0 8.7 18.9"><path d="M6.3 3.4h2.4V0H5.8C2.7.2 1.5 2.4 1.9 6.1H0v3.5h2v9.3h3.8V9.6h2.9V6.1H5.8c0-1 0-2.4.5-2.7z"/></symbol><symbol id="icon-fullscreen" viewBox="0 0 595.3 841.9"><path d="M724.1 751v6h3v-3h3v-3h-3zm3 14h-3v6h6v-3h-3zm14-14h-3v3h3v3h3v-6zm0 17h-3v3h6v-6h-3z" fill="#444545"/></symbol><symbol id="icon-gift" viewBox="0 0 63 75.1"><path d="M60.2 22.2H35.8C49.4 15.4 50.5 11.1 50 8.7c-1.1-3.9-5.6-6.9-9.8-5.3-5.5 2.1-7 10.3-8.5 16.2-1.9-6-3.7-13.6-8-17.5-1.2-1.1-3-2.2-5.7-2-4 .4-9.7 5.3-7.3 10.8 2.2 5.3 9.5 8.7 14.4 11.4H2.8c-1.6 0-2.8 1.3-2.8 2.8v11.2c0 1.6 1.3 2.8 2.8 2.8h.3v36h57v-36h.1c1.6 0 2.8-1.3 2.8-2.8V25.1c0-1.6-1.3-2.9-2.8-2.9zM41.8 5.9c2.1-.3 4.9 1.3 5.2 3.2.4 2.7-3.3 5.2-5 6.3-2.5 1.7-4.9 2.6-7.2 4 .8-3.7 2.5-12.9 7-13.5zm-22.6 9.8c-2.2-1.5-6.4-4.4-6.3-7.7.1-3.6 5.7-6.5 8.7-3.8 3.8 3.3 5.6 11 7 16.4-3.2-1.6-6.2-2.8-9.4-4.9zm5.9 56.4H6v-33h19.1v33zm0-36H3V25.2h22.1v10.9zm10 36H28V25.2h7.1v46.9zm22 0h-19v-33h19.1v33zm2.9-36H38.1V25.2H60v10.9z"/></symbol><symbol id="icon-home" viewBox="0 0 74.7 72.3"><path d="M29.5 65.3h16V41.4h-16v23.9zm13.1-2.9H32.4V44.3h10.1v18.1z"/><path d="M72.6 39.4l2.1-2.1-9.9-9.9V.4H51v13.2L37.3 0 0 37.4l2.1 2.1 7.8-7.8v37.8H6v2.9h63.9v-2.9h-5.1V31.6l7.8 7.8zm-18.7-36h7.9v21.1l-7.9-7.9V3.4zm8 66h-49V28.7L37.3 4.2l24.5 24.5v40.7z"/><path d="M29.8 27.2c0 4.3 3.5 7.8 7.7 7.8 4.3 0 7.8-3.5 7.8-7.8s-3.5-7.7-7.8-7.7-7.7 3.4-7.7 7.7zm7.7-5c2.7 0 5 2.2 5 5 0 2.7-2.2 5-5 5-2.7 0-5-2.2-5-5 0-2.7 2.3-5 5-5zM16.9 41.4h3v3.9h-3zm5.9 0h3v3.9h-3zm-5.9 6h3v3.9h-3zm5.9 0h3v3.9h-3zm26-6h3v3.9h-3zm6 0h3v3.9h-3zm-6 6h3v3.9h-3zm6 0h3v3.9h-3z"/></symbol><symbol id="icon-like" viewBox="0 0 22 20"><path fill="#FFF" d="M12.4 3.6l-.6 2.9-.6 2.5h8.7v2.1L17 18H8V8l4.4-4.4M2 10v8-8M13.2 0L6.6 6.6c-.4.3-.6.8-.6 1.4v10c0 1.1.9 2 2 2h9c.8 0 1.5-.5 1.8-1.2l3-7.1c.1-.2.1-.5.1-.7V9h.1c0-1.1-.9-2-2-2h-6.3l1-4.6v-.3c0-.4-.2-.8-.4-1.1l-1.1-1zM4 8H0v12h4V8zm18 1z"/></symbol><symbol id="icon-mapmarker" viewBox="0 0 1615.8 1615.8"><circle fill="#FFF" cx="810" cy="813" r="13.5"/><path fill="#81B3D3" d="M801.6 813c0-4.6 3.7-8.4 8.4-8.4 4.6 0 8.4 3.7 8.4 8.4 0 4.6-3.7 8.4-8.4 8.4-4.6 0-8.4-3.8-8.4-8.4z"/></symbol><symbol id="icon-phone" viewBox="0 0 18 18"><path fill="#010101" d="M3.6 7.8c1.4 2.8 3.8 5.1 6.6 6.6l2.2-2.2c.3-.3.7-.4 1-.2 1.1.4 2.3.6 3.6.6.6 0 1 .4 1 1V17c0 .6-.4 1-1 1C7.6 18 0 10.4 0 1c0-.6.4-1 1-1h3.5c.6 0 1 .4 1 1 0 1.2.2 2.4.6 3.6.1.3 0 .7-.2 1L3.6 7.8z"/></symbol><symbol id="icon-replay" viewBox="0 0 595.3 841.9"><path d="M185.2 750.9v-4l-5 5 5 5v-4c3.3 0 6 2.7 6 6s-2.7 6-6 6-6-2.7-6-6h-2c0 4.4 3.6 8 8 8s8-3.6 8-8-3.6-8-8-8z"/></symbol><symbol id="icon-subtitles" viewBox="0 0 595.3 841.9"><path fill="#444545" d="M698.2 751h-26c-1.7 0-3 1.3-3 3v14c0 1.7 1.3 3 3 3h26c1.7 0 3-1.3 3-3v-14c0-1.6-1.3-3-3-3zm-14.6 15.9c-.5.1-1.1.2-1.7.2-.7 0-1.4-.1-2-.3-.6-.2-1.2-.6-1.6-1-.5-.5-.9-1.1-1.1-1.9-.3-.8-.4-1.7-.4-2.8 0-1.1.2-2.1.5-2.9.3-.8.7-1.4 1.2-1.9s1.1-.8 1.7-1c.6-.2 1.2-.3 1.9-.3s1.2 0 1.7.1.8.2 1.1.3l-.4 1.9-.9-.3c-.3-.1-.8-.1-1.3-.1-.9 0-1.6.3-2.2 1-.6.7-.8 1.7-.8 3 0 .6.1 1.1.2 1.6s.3.9.6 1.3c.3.3.6.6 1 .8.4.2.9.3 1.4.3.5 0 .9 0 1.3-.1.3-.1.6-.2.9-.4l.5 1.8c-.6.4-1 .5-1.6.7zm8.7 0c-.5.1-1.1.2-1.7.2-.7 0-1.4-.1-2-.3-.6-.2-1.2-.6-1.6-1-.5-.5-.9-1.1-1.1-1.9-.3-.8-.4-1.7-.4-2.8 0-1.1.2-2.1.5-2.9.3-.8.7-1.4 1.2-1.9s1.1-.8 1.7-1c.6-.2 1.2-.3 1.9-.3s1.2 0 1.7.1.8.2 1.1.3l-.4 1.9-.9-.3c-.3-.1-.8-.1-1.3-.1-.9 0-1.6.3-2.2 1-.6.7-.8 1.7-.8 3 0 .6.1 1.1.2 1.6s.3.9.6 1.3c.3.3.6.6 1 .8.4.2.9.3 1.4.3.5 0 .9 0 1.3-.1.3-.1.6-.2.9-.4l.5 1.8c-.6.4-1 .5-1.6.7z"/></symbol><symbol id="icon-tick" viewBox="0 0 226.8 195.6"><path d="M123.8 82.6l-1.1-1.1c-.3-.3-.9-.3-1.2 0l-11.9 11.9-6.2-6.2c-.3-.3-.9-.3-1.2 0l-1.1 1.1c-.3.3-.3.9 0 1.2l7.8 7.8c.2.2.4.2.6.2.2 0 .4-.1.6-.2l13.5-13.5c.5-.3.5-.8.2-1.2z"/></symbol><symbol id="icon-twitter" viewBox="0 0 17.5 14.7"><path d="M11.3.2C13-.3 14.4.4 15 1.3c.7-.2 1.4-.5 2.1-.7 0 .8-.5 1.5-.9 1.7.7.2 1.3-.5 1.3-.5-.2 1-1 1.7-1.6 2-.2 6.6-3.3 11-10.4 10.8H5c-.4 0-4.3-.4-5-1.8 2.3.2 4-.4 4.8-1.1-1-.3-2.8-.5-3.1-2.9.4.1.6.2 1.3.1C1.8 8.1.4 7.4.5 5.2c.3.3 1.1.5 1.4.5-.7-.2-2-3.3-.9-4.8 1.9 1.8 3.8 3.5 7.4 3.7C8.5 2.3 9.5.8 11.3.2z"/></symbol><symbol id="icon-youtube" viewBox="0 0 20 14"><path d="M17.1 0H2.8C1.3 0 0 1.3 0 2.8v8.3C0 12.7 1.3 14 2.8 14h14.3c1.6 0 2.8-1.3 2.8-2.8V2.8C20 1.3 18.7 0 17.1 0zM7 10.4V3.6L13.8 7 7 10.4z"/></symbol></svg>