<?xml version="1.0" encoding="utf-8"?>
<!-- Generator: Adobe Illustrator 22.0.0, SVG Export Plug-In . SVG Version: 6.00 Build 0)  -->
<svg version="1.1" id="Layer_1" xmlns="http://www.w3.org/2000/svg" xmlns:xlink="http://www.w3.org/1999/xlink" x="0px" y="0px"
	 viewBox="0 0 595.3 841.9" enable-background="new 0 0 595.3 841.9" xml:space="preserve">
<path fill="#444545" d="M698.2,751h-26c-1.7,0-3,1.3-3,3v14c0,1.7,1.3,3,3,3h26c1.7,0,3-1.3,3-3v-14
	C701.2,752.4,699.9,751,698.2,751z M683.6,766.9c-0.5,0.1-1.1,0.2-1.7,0.2c-0.7,0-1.4-0.1-2-0.3c-0.6-0.2-1.2-0.6-1.6-1
	c-0.5-0.5-0.9-1.1-1.1-1.9c-0.3-0.8-0.4-1.7-0.4-2.8c0-1.1,0.2-2.1,0.5-2.9c0.3-0.8,0.7-1.4,1.2-1.9c0.5-0.5,1.1-0.8,1.7-1
	c0.6-0.2,1.2-0.3,1.9-0.3c0.7,0,1.2,0,1.7,0.1c0.5,0.1,0.8,0.2,1.1,0.3l-0.4,1.9c-0.3-0.1-0.6-0.2-0.9-0.3c-0.3-0.1-0.8-0.1-1.3-0.1
	c-0.9,0-1.6,0.3-2.2,1c-0.6,0.7-0.8,1.7-0.8,3c0,0.6,0.1,1.1,0.2,1.6c0.1,0.5,0.3,0.9,0.6,1.3c0.3,0.3,0.6,0.6,1,0.8
	c0.4,0.2,0.9,0.3,1.4,0.3c0.5,0,0.9,0,1.3-0.1c0.3-0.1,0.6-0.2,0.9-0.4l0.5,1.8C684.6,766.6,684.2,766.7,683.6,766.9z M692.3,766.9
	c-0.5,0.1-1.1,0.2-1.7,0.2c-0.7,0-1.4-0.1-2-0.3c-0.6-0.2-1.2-0.6-1.6-1c-0.5-0.5-0.9-1.1-1.1-1.9c-0.3-0.8-0.4-1.7-0.4-2.8
	c0-1.1,0.2-2.1,0.5-2.9c0.3-0.8,0.7-1.4,1.2-1.9c0.5-0.5,1.1-0.8,1.7-1c0.6-0.2,1.2-0.3,1.9-0.3c0.7,0,1.2,0,1.7,0.1
	c0.5,0.1,0.8,0.2,1.1,0.3l-0.4,1.9c-0.3-0.1-0.6-0.2-0.9-0.3c-0.3-0.1-0.8-0.1-1.3-0.1c-0.9,0-1.6,0.3-2.2,1c-0.6,0.7-0.8,1.7-0.8,3
	c0,0.6,0.1,1.1,0.2,1.6c0.1,0.5,0.3,0.9,0.6,1.3c0.3,0.3,0.6,0.6,1,0.8c0.4,0.2,0.9,0.3,1.4,0.3c0.5,0,0.9,0,1.3-0.1
	c0.3-0.1,0.6-0.2,0.9-0.4l0.5,1.8C693.3,766.6,692.9,766.7,692.3,766.9z"/>
</svg>
