<?xml version="1.0" encoding="utf-8"?>
<!-- Generator: Adobe Illustrator 22.0.0, SVG Export Plug-In . SVG Version: 6.00 Build 0)  -->
<svg version="1.1" id="Слой_1" xmlns="http://www.w3.org/2000/svg" xmlns:xlink="http://www.w3.org/1999/xlink" x="0px" y="0px"
	 viewBox="0 0 159 198.1" enable-background="new 0 0 159 198.1" xml:space="preserve">
<path stroke="#231F20" stroke-miterlimit="10" d="M80.4,3l-0.8-0.1l-76.7,8v140.6l76.7,45.6l76.7-45.6V10.9L80.4,3z M146.3,145.8
	l-66.7,39.6l-66.7-39.7V88.1l66.4,39.5l0.1,7.2l-45.5-27.1l-0.1,7l45.7,27.5l0.1,7.3l-45.7-27.2l-0.1,7l45.7,27.5l46.2-27.6v-7h-0.1
	V99.4l20.6-12.3L146.3,145.8L146.3,145.8z M146.2,79.7L128,90.4l-8.4,5L79.5,71.5l-0.1,7l34.3,20.4l-0.3,0.2l-0.7,0.4l-4.9,2.9
	L79.5,85.5l-0.1,7l22.4,13.3l-5.3,3.5l-0.1,0.1l-16.9-10l-0.1,7l11.1,6.5l-11.3,6.8l-66-39.3l66.1-39.8L146.2,79.7L146.2,79.7z
	 M146.3,72.7l-67-39.5L13,72.7V20l66.7-7l66.7,7L146.3,72.7L146.3,72.7z"/>
</svg>
