<?xml version="1.0" encoding="utf-8"?>
<!-- Generator: Adobe Illustrator 22.0.0, SVG Export Plug-In . SVG Version: 6.00 Build 0)  -->
<svg version="1.1" id="Layer_1" xmlns="http://www.w3.org/2000/svg" xmlns:xlink="http://www.w3.org/1999/xlink" x="0px" y="0px"
	 viewBox="0 0 32 20" style="enable-background:new 0 0 32 20;" xml:space="preserve">
<path d="M29,0H3C1.3,0,0,1.3,0,3v14c0,1.7,1.3,3,3,3h26c1.7,0,3-1.3,3-3V3C32,1.4,30.8,0,29,0z M14.4,15.9c-0.5,0.1-1.1,0.2-1.7,0.2
	c-0.7,0-1.4-0.1-2-0.3s-1.2-0.6-1.6-1c-0.5-0.5-0.9-1.1-1.1-1.9c-0.3-0.8-0.4-1.7-0.4-2.8S7.8,8,8.1,7.2c0.3-0.8,0.7-1.4,1.2-1.9
	s1.1-0.8,1.7-1C11.6,4,12.3,4,13,4s1.2,0,1.7,0.1s0.8,0.2,1.1,0.3l-0.4,1.9C15,6.2,14.8,6,14.4,6c-0.3-0.1-0.8-0.1-1.3-0.1
	c-0.9,0-1.6,0.3-2.2,1c-0.6,0.7-0.8,1.7-0.8,3c0,0.6,0.1,1.1,0.2,1.6c0.1,0.5,0.3,0.9,0.6,1.3c0.3,0.3,0.6,0.6,1,0.8
	s0.9,0.3,1.4,0.3s0.9,0,1.3-0.1c0.3-0.1,0.6-0.2,0.9-0.4l0.5,1.8C15.4,15.5,15,15.7,14.4,15.9z M23.1,15.9c-0.5,0.1-1.1,0.2-1.7,0.2
	c-0.7,0-1.4-0.1-2-0.3s-1.2-0.6-1.6-1c-0.5-0.5-0.9-1.1-1.1-1.9c-0.3-0.8-0.4-1.7-0.4-2.8s0.2-2.1,0.5-2.9c0.3-0.8,0.7-1.4,1.2-1.9
	s1.1-0.8,1.7-1C20.3,4,21,4,21.7,4s1.2,0,1.7,0s0.8,0.2,1.1,0.3l-0.4,1.9c-0.3,0-0.6-0.2-1-0.2c-0.3-0.1-0.8-0.1-1.3-0.1
	c-0.9,0-1.6,0.3-2.2,1s-0.8,1.7-0.8,3c0,0.6,0.1,1.1,0.2,1.6s0.3,0.9,0.6,1.3c0.3,0.3,0.6,0.6,1,0.8s0.9,0.3,1.4,0.3s0.9,0,1.3-0.1
	c0.3-0.1,0.6-0.2,0.9-0.4l0.5,1.8C24.1,15.5,23.8,15.7,23.1,15.9z"/>
</svg>
