<svg xmlns="http://www.w3.org/2000/svg" viewBox="0 0 32 20"><path d="M29 0H3C1.3 0 0 1.3 0 3v14c0 1.7 1.3 3 3 3h26c1.7 0 3-1.3 3-3V3c0-1.6-1.2-3-3-3zM14.4 15.9c-.5.1-1.1.2-1.7.2-.7 0-1.4-.1-2-.3s-1.2-.6-1.6-1c-.5-.5-.9-1.1-1.1-1.9-.3-.8-.4-1.7-.4-2.8s.2-2.1.5-2.9c.3-.8.7-1.4 1.2-1.9s1.1-.8 1.7-1c.6-.3 1.3-.3 2-.3s1.2 0 1.7.1.8.2 1.1.3l-.4 1.9c-.4-.1-.6-.3-1-.3-.3-.1-.8-.1-1.3-.1-.9 0-1.6.3-2.2 1-.6.7-.8 1.7-.8 3 0 .6.1 1.1.2 1.6s.3.9.6 1.3c.3.3.6.6 1 .8s.9.3 1.4.3.9 0 1.3-.1c.3-.1.6-.2.9-.4l.5 1.8c-.6.3-1 .5-1.6.7zm8.7 0c-.5.1-1.1.2-1.7.2-.7 0-1.4-.1-2-.3s-1.2-.6-1.6-1c-.5-.5-.9-1.1-1.1-1.9-.3-.8-.4-1.7-.4-2.8s.2-2.1.5-2.9c.3-.8.7-1.4 1.2-1.9s1.1-.8 1.7-1c.6-.3 1.3-.3 2-.3h1.7c.5 0 .8.2 1.1.3l-.4 1.9c-.3 0-.6-.2-1-.2-.3-.1-.8-.1-1.3-.1-.9 0-1.6.3-2.2 1s-.8 1.7-.8 3c0 .6.1 1.1.2 1.6s.3.9.6 1.3c.3.3.6.6 1 .8s.9.3 1.4.3.9 0 1.3-.1c.3-.1.6-.2.9-.4l.5 1.8c-.6.3-.9.5-1.6.7z"/></svg>