<svg xmlns="http://www.w3.org/2000/svg" viewBox="0 0 159 198.1"><path stroke="#231F20" stroke-miterlimit="10" d="M80.4 3l-.8-.1-76.7 8v140.6l76.7 45.6 76.7-45.6V10.9L80.4 3zm65.9 142.8l-66.7 39.6-66.7-39.7V88.1l66.4 39.5.1 7.2-45.5-27.1-.1 7 45.7 27.5.1 7.3-45.7-27.2-.1 7 45.7 27.5 46.2-27.6v-7h-.1V99.4l20.6-12.3.1 58.7zm-.1-66.1L128 90.4l-8.4 5-40.1-23.9-.1 7 34.3 20.4-.3.2-.7.4-4.9 2.9-28.3-16.9-.1 7 22.4 13.3-5.3 3.5-.1.1-16.9-10-.1 7 11.1 6.5-11.3 6.8-66-39.3 66.1-39.8 66.9 39.1zm.1-7l-67-39.5L13 72.7V20l66.7-7 66.7 7-.1 52.7z"/></svg>